<svg width="59" height="60" viewBox="0 0 59 60" fill="none" xmlns="http://www.w3.org/2000/svg">
<path fill-rule="evenodd" clip-rule="evenodd" d="M51.2976 22.7887V13.8672H43.3242C41.4395 13.8672 39.907 12.3348 39.907 10.45V2.47656H8.1801C7.55271 2.47656 7.04104 2.98823 7.04104 3.61563V22.8931C7.54223 22.7611 8.08009 22.7441 8.61602 22.8669L11.9972 23.6413C13.3609 23.9536 14.3428 25.0847 14.5431 26.397L25.7987 26.3842C26.5695 25.6541 27.4731 24.9311 28.447 24.5671C29.2829 24.2545 30.1338 24.0859 31.0286 24.1273C32.4586 24.1934 33.7773 24.792 35.0202 25.4573C36.7399 26.378 38.4113 27.4292 40.1185 28.3831C41.1279 28.9471 42.2169 29.0221 43.2821 28.563L44.586 28.001L44.5004 27.6272C44.093 25.8486 45.2223 24.0485 47.0008 23.6411L50.382 22.8668C50.6889 22.7964 50.9965 22.7719 51.2976 22.7887ZM29.2443 26.8453C31.2582 26.0926 32.5262 26.7438 36.2315 28.9172C37.0422 29.3932 37.9616 29.9328 39.0071 30.5168C40.6518 31.4355 42.4915 31.5354 44.1862 30.7983L45.1012 30.4002L48.4964 45.2243L45.6809 46.4672L35.3029 36.0903C33.2857 34.0727 30.1179 33.7869 27.7725 35.4116C24.1812 37.8982 21.8064 38.8363 19.5319 36.8005C21.1798 35.2671 22.7155 33.4482 24.0958 31.8138C26.0265 29.5269 27.8517 27.3659 29.2443 26.8453ZM56.2186 45.1797C56.0682 45.4188 55.8371 45.5843 55.5631 45.646L52.1835 46.4208C51.9147 46.4827 51.63 46.4342 51.3936 46.2843C51.1573 46.1344 50.989 45.9029 50.9273 45.6326L46.7197 27.2632C46.5912 26.6991 46.9454 26.1355 47.5091 26.0065L50.8898 25.2322C51.453 25.1027 52.017 25.4568 52.1461 26.0204L56.3532 44.3897C56.4173 44.6601 56.369 44.9406 56.2186 45.1797ZM44.1921 50.6328C43.8697 50.9552 43.4382 51.133 42.9756 51.133C42.514 51.133 42.0826 50.9556 41.7602 50.6333L33.6706 42.5426C33.2252 42.0977 32.5042 42.0977 32.0587 42.5426C31.6149 42.987 31.6149 43.7086 32.0587 44.1535C32.0587 44.1535 40.4471 52.5408 40.4857 52.5799C40.8081 52.9023 40.9854 53.3343 40.9854 53.7959C40.9854 54.2569 40.8081 54.6889 40.4857 55.0113C40.1634 55.3342 39.7315 55.512 39.2693 55.512C38.8078 55.512 38.3763 55.3348 38.054 55.0117L29.3513 46.3085C28.9059 45.8637 28.1853 45.8637 27.74 46.3085C27.2956 46.7534 27.2956 47.4744 27.74 47.9193L34.1946 54.3745C34.4987 54.6937 34.6664 55.1128 34.6664 55.5603C34.6664 56.0218 34.4886 56.4538 34.1661 56.7768C33.8427 57.0992 33.4113 57.2764 32.9497 57.277C32.4876 57.277 32.0568 57.0992 31.7333 56.7768L24.6667 49.7096C24.2223 49.2648 23.5013 49.2648 23.0564 49.7096C22.6109 50.1545 22.6109 50.8756 23.0564 51.3205L26.35 54.6152C26.6589 54.9349 26.8276 55.3566 26.8276 55.8075C26.8276 56.269 26.6498 56.701 26.3274 57.0234C26.0049 57.3458 25.572 57.5236 25.111 57.5236C24.6495 57.5236 24.2181 57.3463 23.8907 57.0191L10.7703 44.0455L14.2601 28.8066H23.6655C23.2383 29.2982 22.8032 29.8139 22.3556 30.3443C20.7072 32.2952 19.0045 34.3122 17.1626 35.857C16.6817 36.2606 16.6173 36.9763 17.0191 37.4588C18.6945 39.4721 20.4794 40.1775 22.1939 40.177C24.8922 40.177 27.4165 38.4291 29.0691 37.2841C30.5328 36.2707 32.4337 36.4422 33.6926 37.701L44.192 48.201C44.8633 48.8715 44.8633 49.9623 44.1921 50.6328ZM7.60351 46.2845C7.36442 46.4344 7.08444 46.4827 6.81312 46.4209L3.43135 45.6461C3.16162 45.5843 2.92903 45.4189 2.7797 45.1798C2.62934 44.9407 2.58195 44.6603 2.64324 44.3894L6.85082 26.0206C6.96154 25.5354 7.39518 25.2055 7.87279 25.2055C7.95013 25.2055 8.02861 25.2142 8.10709 25.2324L11.4878 26.0067C12.052 26.1357 12.4061 26.6993 12.2777 27.2635L8.06927 45.6326C8.00811 45.9029 7.84203 46.1344 7.60351 46.2845ZM42.185 2.57521C42.306 2.63045 42.4174 2.70882 42.5186 2.81008L50.964 11.2554C51.0652 11.3567 51.1436 11.4681 51.1988 11.5891H43.3241C42.6967 11.5891 42.185 11.0774 42.185 10.45V2.57521ZM28.7373 11.7669C28.1082 11.7669 27.5983 11.2569 27.5983 10.6278C27.5983 9.9987 28.1082 9.48875 28.7373 9.48875H37.1094C37.7385 9.48875 38.2485 9.9987 38.2485 10.6278C38.2485 11.2569 37.7385 11.7669 37.1094 11.7669H28.7373ZM28.7373 16.2093C28.1082 16.2093 27.5983 15.6994 27.5983 15.0703C27.5983 14.4412 28.1082 13.9312 28.7373 13.9312H37.1094C37.7385 13.9312 38.2485 14.4412 38.2485 15.0703C38.2485 15.6994 37.7385 16.2093 37.1094 16.2093H28.7373ZM28.7373 20.6517C28.1082 20.6517 27.5983 20.1417 27.5983 19.5126C27.5983 18.8835 28.1082 18.3735 28.7373 18.3735H37.1094C37.7385 18.3735 38.2485 18.8835 38.2485 19.5126C38.2485 20.1417 37.7385 20.6517 37.1094 20.6517H28.7373ZM16.0517 20.6136C15.5946 20.1836 15.5727 19.4644 16.0027 19.0073C16.4327 18.5502 17.1519 18.5283 17.609 18.9583C17.9493 19.2793 18.2427 19.5283 18.5366 19.677C18.7926 19.8065 19.0956 19.8764 19.5108 19.8764C20.1104 19.8764 20.6432 19.6684 21.0197 19.3322C21.363 19.0257 21.5754 18.6089 21.5754 18.1547C21.5754 17.7006 21.3629 17.2838 21.0197 16.9772C20.6433 16.6409 20.1104 16.4329 19.5108 16.4329C18.3411 16.4329 17.272 16.0004 16.4891 15.3014C15.673 14.5726 15.1681 13.5588 15.1681 12.433H15.1726C15.1726 11.3045 15.6757 10.2911 16.4891 9.56472C17.0049 9.1042 17.6449 8.7594 18.3559 8.57761L18.3382 7.83517C18.3235 7.20857 18.8194 6.68859 19.4461 6.67389C20.0727 6.6592 20.5927 7.15515 20.6074 7.78186L20.6271 8.60495C20.9693 8.69653 21.3192 8.82228 21.6448 8.97366C22.3222 9.28873 22.9512 9.73945 23.3007 10.2712C23.6447 10.7946 23.4994 11.4978 22.976 11.8418C22.4526 12.1858 21.7493 12.0405 21.4053 11.5171C21.3077 11.3684 21.0283 11.1943 20.6927 11.0382C20.2562 10.8352 19.8012 10.7067 19.5109 10.7067V10.7112C18.9113 10.7112 18.3786 10.9192 18.002 11.2554C17.656 11.5645 17.4418 11.9815 17.4418 12.4329H17.4463C17.4463 12.887 17.6587 13.3038 18.0019 13.6104C18.3784 13.9467 18.9112 14.1547 19.5108 14.1547C20.6805 14.1547 21.7496 14.5872 22.5325 15.2862C23.3487 16.015 23.8535 17.0288 23.8535 18.1546C23.8535 19.2804 23.3487 20.2941 22.5325 21.0229C22.0173 21.483 21.3782 21.8275 20.668 22.0093L20.6834 22.6471C20.6981 23.2737 20.2021 23.7937 19.5755 23.8084C18.9489 23.823 18.4289 23.3271 18.4142 22.7004L18.3981 22.0318C18.0823 21.9562 17.7919 21.8467 17.5131 21.7056C16.9749 21.4336 16.5332 21.0679 16.0517 20.6136Z" fill="#5F8BC8"/>
<rect x="13.7051" y="4.48511" width="10.3275" height="19.44" fill="#5F8BC8"/>
<path d="M13.1887 11.4292C13.4701 9.78183 14.0801 8.51968 15.0183 7.64283C15.9566 6.75269 17.2098 6.30762 18.7781 6.30762C19.7431 6.30762 20.735 6.53346 21.7537 6.98521L21.2913 8.40007C20.2726 8.04142 19.4081 7.86206 18.6977 7.86206C16.8747 7.86206 15.7488 9.05109 15.3199 11.4292H20.4067V12.6847H15.1792C15.1658 12.9105 15.1591 13.2494 15.1591 13.701V14.0598H19.8035V15.3152H15.2194C15.3266 16.5774 15.6148 17.5406 16.0839 18.2048C16.5531 18.8558 17.3037 19.1814 18.3358 19.1814C18.7781 19.1814 19.207 19.1282 19.6225 19.0219C20.0381 18.9157 20.4736 18.7762 20.9294 18.6034L21.3315 19.9984C20.3396 20.49 19.3075 20.7357 18.2352 20.7357C16.5732 20.7357 15.3333 20.2774 14.5157 19.3607C13.7115 18.4307 13.2289 17.0822 13.0681 15.3152H11.8818V14.0598H13.0078V13.7608C13.0078 13.5217 13.0211 13.163 13.0479 12.6847H11.8818V11.4292H13.1887Z" fill="#FEFEFE"/>
</svg>
