<svg width="59" height="60" viewBox="0 0 59 60" fill="none" xmlns="http://www.w3.org/2000/svg">
<path d="M33.1386 1.72363H5.8342C3.36002 1.72363 1.41602 3.756 1.41602 6.23018V53.7698C1.41602 56.244 3.44838 58.2764 5.92256 58.2764H40.0309C42.5051 58.2764 44.5375 56.244 44.5375 53.7698V12.9458C44.4491 12.4156 33.5804 1.72363 33.1386 1.72363ZM19.884 8.52763H29.2506C29.7807 8.52763 30.1342 8.88109 30.1342 9.41127C30.1342 9.94145 29.7807 10.2949 29.2506 10.2949H19.884C19.3538 10.2949 19.0004 9.94145 19.0004 9.41127C19.0004 8.88109 19.3538 8.52763 19.884 8.52763ZM19.884 13.1225H29.2506C29.7807 13.1225 30.1342 13.476 30.1342 14.0062C30.1342 14.5364 29.7807 14.8898 29.2506 14.8898H19.884C19.3538 14.8898 19.0004 14.5364 19.0004 14.0062C19.0004 13.5644 19.3538 13.1225 19.884 13.1225ZM15.7309 50.5887C15.7309 51.2956 15.1124 51.9142 14.4055 51.9142H9.01529C8.30838 51.9142 7.68983 51.2956 7.68983 50.5887V45.9054C7.68983 45.1102 8.30838 44.58 9.01529 44.58H14.4055C15.2007 44.58 15.7309 45.1985 15.7309 45.9054V50.5887ZM15.7309 38.3945C15.7309 39.1898 15.1124 39.72 14.4055 39.72H9.01529C8.30838 39.72 7.68983 39.1015 7.68983 38.3945V33.7113C7.68983 33.0044 8.30838 32.3858 9.01529 32.3858H14.4055C15.2007 32.3858 15.7309 33.0044 15.7309 33.7113V38.3945ZM15.7309 26.2004C15.7309 26.9073 15.1124 27.5258 14.4055 27.5258H9.01529C8.30838 27.5258 7.68983 26.9073 7.68983 26.2004V21.5171C7.68983 20.8102 8.30838 20.1916 9.01529 20.1916H14.4055C15.2007 20.1916 15.7309 20.8102 15.7309 21.5171V26.2004ZM15.7309 14.0062C15.7309 14.8015 15.1124 15.3316 14.4055 15.3316H9.01529C8.30838 15.3316 7.68983 14.7131 7.68983 14.0062V9.41127C7.68983 8.70436 8.30838 8.08581 9.01529 8.08581H14.4055C15.2007 8.08581 15.7309 8.70436 15.7309 9.41127V14.0062ZM38.1753 51.4724H19.884C19.3538 51.4724 19.0004 51.0305 19.0004 50.5887C19.0004 50.0585 19.3538 49.7051 19.884 49.7051H38.1753C38.6171 49.7051 39.0589 50.0585 39.0589 50.5887C39.0589 51.0305 38.6171 51.4724 38.1753 51.4724ZM38.1753 46.7891H19.884C19.3538 46.7891 19.0004 46.4356 19.0004 45.9054C19.0004 45.4636 19.3538 45.0218 19.884 45.0218H38.1753C38.6171 45.0218 39.0589 45.4636 39.0589 45.9054C39.0589 46.4356 38.6171 46.7891 38.1753 46.7891ZM38.1753 39.2782H19.884C19.3538 39.2782 19.0004 38.8364 19.0004 38.3945C19.0004 37.8644 19.3538 37.5109 19.884 37.5109H38.1753C38.6171 37.5109 39.0589 37.8644 39.0589 38.3945C39.0589 38.8364 38.6171 39.2782 38.1753 39.2782ZM38.1753 34.6833H19.884C19.3538 34.6833 19.0004 34.2415 19.0004 33.7996C19.0004 33.2694 19.3538 32.916 19.884 32.916H38.1753C38.6171 32.916 39.0589 33.2694 39.0589 33.7996C39.0589 34.2415 38.6171 34.6833 38.1753 34.6833ZM38.1753 27.084H19.884C19.3538 27.084 19.0004 26.7305 19.0004 26.2004C19.0004 25.6702 19.3538 25.3167 19.884 25.3167H38.1753C38.6171 25.3167 39.0589 25.6702 39.0589 26.2004C39.0589 26.6422 38.6171 27.084 38.1753 27.084ZM38.1753 22.4891H19.884C19.3538 22.4891 19.0004 22.0473 19.0004 21.6055C19.0004 21.0753 19.3538 20.7218 19.884 20.7218H38.1753C38.6171 20.7218 39.0589 21.0753 39.0589 21.6055C39.0589 22.0473 38.6171 22.4891 38.1753 22.4891ZM35.8778 12.0622C34.9058 12.0622 34.0222 11.2669 34.0222 10.2065V4.728L41.4447 12.0622H35.8778Z" fill="#5F8BC8"/>
<path d="M12.2852 22.4892L11.3132 23.4612L11.2248 23.3728C10.8714 23.0194 10.3412 23.0194 9.98775 23.3728C9.63429 23.7263 9.63429 24.2565 9.98775 24.6099L10.6947 25.3168C10.8714 25.4936 11.0481 25.5819 11.3132 25.5819C11.5783 25.5819 11.755 25.4936 11.9317 25.3168L13.5223 23.7263C13.8757 23.3728 13.8757 22.8427 13.5223 22.4892C13.1688 22.1358 12.5503 22.1358 12.2852 22.4892Z" fill="#5F8BC8"/>
<path d="M12.2852 46.789L11.3132 47.761L11.2248 47.6727C10.8714 47.3192 10.3412 47.3192 9.98775 47.6727C9.63429 48.0261 9.63429 48.5563 9.98775 48.9097L10.6947 49.6167C10.8714 49.7934 11.0481 49.8817 11.3132 49.8817C11.5783 49.8817 11.755 49.7934 11.9317 49.6167L13.5223 48.0261C13.8757 47.6727 13.8757 47.1425 13.5223 46.789C13.1688 46.4356 12.5503 46.4356 12.2852 46.789Z" fill="#5F8BC8"/>
<path d="M53.8163 20.9869C53.4629 20.3683 52.9327 20.0149 52.2258 20.0149C51.5189 20.0149 50.9887 20.3683 50.6352 20.9869L47.6309 26.6422H56.8207L53.8163 20.9869Z" fill="#5F8BC8"/>
<path d="M47.2773 28.4097H57.0857V50.5889H47.2773V28.4097Z" fill="#5F8BC8"/>
<path d="M47.2773 55.6257C47.2773 57.1278 48.5144 58.2766 49.9283 58.2766H54.4348C55.937 58.2766 57.0857 57.0395 57.0857 55.6257V52.3562H47.2773V55.6257Z" fill="#5F8BC8"/>
</svg>
