<svg width="71" height="80" viewBox="0 0 71 80" fill="none" xmlns="http://www.w3.org/2000/svg">
<g clip-path="url(#clip0_204_279)">
<path d="M4.07091 66.2671V10.5768C4.07091 8.78956 5.52145 7.33902 7.30872 7.33902H14.1383C14.6261 9.31624 16.4134 10.7927 18.5331 10.7927H40.5502C42.9462 10.7927 44.9147 8.91044 45.0701 6.549V6.69146C45.0701 6.91163 45.0486 7.12749 45.0183 7.33902H51.5587C53.346 7.33902 54.7965 8.78956 54.7965 10.5768V33.2415H58.6819V10.5768C58.6819 6.64829 55.4872 3.45366 51.5587 3.45366H44.945C44.4571 1.47644 42.6699 0 40.5502 0H18.5331C16.4134 0 14.6261 1.47644 14.1383 3.45366H7.30872C3.38018 3.45366 0.185547 6.64829 0.185547 10.5768V66.2671C0.185547 70.1956 3.38018 73.3902 7.30872 73.3902H25.6563V69.5049H7.30872C5.52145 69.5049 4.07091 68.0543 4.07091 66.2671ZM17.8855 4.53293C17.8855 4.18756 18.1877 3.88537 18.5331 3.88537H40.5502C40.8955 3.88537 41.1977 4.18756 41.1977 4.53293V6.25976C41.1977 6.60512 40.8955 6.90732 40.5502 6.90732H18.5331C18.1877 6.90732 17.8855 6.60512 17.8855 6.25976V4.53293Z" fill="white"/>
<path d="M32.6112 24.3569C31.8773 23.5755 30.647 23.5366 29.8656 24.2662L21.0458 32.5377L16.2063 28.1343C15.412 27.4134 14.1816 27.4695 13.4607 28.2638C12.7397 29.0582 12.7959 30.2842 13.5902 31.0095L19.755 36.6217C20.1262 36.9584 20.5925 37.1268 21.0631 37.1268C21.5336 37.1268 22.0171 36.9498 22.3927 36.6001L32.5206 27.1025C33.302 26.3686 33.3408 25.1383 32.6069 24.3569H32.6112Z" fill="white"/>
<path d="M29.8656 38.9485L21.0458 47.22L16.2063 42.8166C15.412 42.0956 14.1816 42.1517 13.4607 42.9461C12.7397 43.7404 12.7959 44.9665 13.5902 45.6917L19.755 51.3039C20.1262 51.6407 20.5925 51.809 21.0631 51.809C21.5336 51.809 22.0171 51.632 22.3927 51.2824L32.5206 41.7848C33.302 41.0509 33.3408 39.8205 32.6069 39.0391C31.873 38.2577 30.6426 38.2189 29.8612 38.9485H29.8656Z" fill="white"/>
<path d="M68.4603 47.9411L64.657 44.1551C64.657 44.1551 64.6354 44.1335 64.6224 44.1205C64.6095 44.1076 64.5965 44.0946 64.5836 44.086L60.8105 40.3301C60.1758 39.6998 59.4549 39.2163 58.6821 38.8753C57.4561 38.3313 56.1049 38.15 54.7968 38.3356C53.3031 38.5472 51.8655 39.225 50.7171 40.3776L34.4331 57.1969C34.4331 57.1969 34.4288 57.2056 34.4245 57.2099C34.3468 57.2919 34.2734 57.3826 34.2087 57.4819C34.1914 57.5034 34.1784 57.5293 34.1655 57.5509C34.118 57.6286 34.0791 57.7063 34.0446 57.7884C34.0317 57.8143 34.0187 57.8402 34.0101 57.8704C33.9755 57.9611 33.9453 58.0603 33.9237 58.1553L29.9995 77.0986C29.8657 77.7419 30.0686 78.4067 30.5305 78.8686C30.8975 79.2356 31.3939 79.4342 31.899 79.4342C32.0329 79.4342 32.1667 79.4212 32.3048 79.391L51.2266 75.3675C51.3388 75.3416 51.4467 75.307 51.5503 75.2639C51.5762 75.2509 51.6065 75.2423 51.6324 75.2293C51.723 75.1862 51.8137 75.1387 51.8957 75.0826C51.9087 75.0739 51.9216 75.0696 51.9346 75.061C52.0295 74.9962 52.1116 74.9228 52.1936 74.8408C52.2022 74.8322 52.2152 74.8235 52.2238 74.8149L54.0327 72.9499L68.4905 58.0172C69.8288 56.6702 70.5627 54.8787 70.5541 52.9748C70.5498 51.0667 69.8072 49.2794 68.4603 47.9411ZM53.493 43.0974C53.8686 42.7175 54.3176 42.4498 54.7968 42.2987C55.9106 41.9447 57.1841 42.2037 58.0691 43.0844L58.6821 43.6931L60.5342 45.5365L43.3047 63.2451L38.5559 58.5223L53.493 43.0974ZM34.4116 74.9703L37.0018 62.4551L43.7148 69.1336L44.0861 69.5049L46.9095 72.311L34.4072 74.9703H34.4116ZM65.7147 55.2931L50.7992 70.7007L46.059 65.9865L63.2885 48.2735L65.7233 50.6954C66.332 51.3041 66.6687 52.1157 66.6687 52.9835C66.673 53.8555 66.3406 54.6671 65.7147 55.2931Z" fill="white"/>
</g>
<defs>
<clipPath id="clip0_204_279">
<rect width="70.8" height="79.4341" fill="white" transform="translate(0.0996094)"/>
</clipPath>
</defs>
</svg>
