<svg width="21" height="21" viewBox="0 0 21 21" fill="none" xmlns="http://www.w3.org/2000/svg">
<mask id="mask0_16_185" style="mask-type:luminance" maskUnits="userSpaceOnUse" x="0" y="0" width="21" height="21">
<path d="M20.8514 0.92627H0.822266V20.3663H20.8514V0.92627Z" fill="white"/>
</mask>
<g mask="url(#mask0_16_185)">
<mask id="mask1_16_185" style="mask-type:luminance" maskUnits="userSpaceOnUse" x="0" y="1" width="20" height="19">
<path d="M19.7233 1.21216H0.903809V19.8564H19.7233V1.21216Z" fill="white"/>
</mask>
<g mask="url(#mask1_16_185)">
<path fill-rule="evenodd" clip-rule="evenodd" d="M10.3136 2.83216C6.00357 2.83216 2.52381 6.28833 2.52381 10.5343C2.52381 14.7803 6.00357 18.2365 10.3136 18.2365C14.6236 18.2365 18.1033 14.7803 18.1033 10.5343C18.1033 6.28833 14.6236 2.83216 10.3136 2.83216ZM0.903809 10.5343C0.903809 5.37802 5.12455 1.21216 10.3136 1.21216C15.5026 1.21216 19.7233 5.37802 19.7233 10.5343C19.7233 15.6906 15.5026 19.8565 10.3136 19.8565C5.12455 19.8565 0.903809 15.6906 0.903809 10.5343Z" fill="#323232"/>
<path fill-rule="evenodd" clip-rule="evenodd" d="M7.8987 4.80333C8.09868 5.2035 7.93639 5.69 7.53621 5.88997C6.14998 6.58268 4.97592 8.4084 4.63423 10.584C4.56483 11.026 4.15031 11.3279 3.70837 11.2585C3.26644 11.1891 2.96444 10.7746 3.03385 10.3327C3.4271 7.82879 4.80885 5.44186 6.81206 4.44083C7.21223 4.24086 7.69874 4.40316 7.8987 4.80333Z" fill="#323232"/>
<path fill-rule="evenodd" clip-rule="evenodd" d="M9.04199 6.33217C9.04199 5.92544 9.37531 5.60144 9.77601 5.60144C10.1768 5.60144 10.5101 5.92544 10.5101 6.33217V10.9963L13.2886 13.0314L13.2997 13.0258L13.4982 13.1714C13.8224 13.4091 13.9015 13.8674 13.657 14.1983C13.5076 14.4053 13.2814 14.5001 13.0613 14.5001C12.9013 14.5001 12.7533 14.4495 12.6272 14.3587L12.6247 14.3569L9.34266 11.9558C9.15572 11.817 9.04199 11.6004 9.04199 11.3645V6.33217Z" fill="#323232"/>
</g>
</g>
</svg>
