<svg width="754" height="754" viewBox="0 0 754 754" fill="none" xmlns="http://www.w3.org/2000/svg">
<path d="M711 431.169C711 431.169 699.835 387.47 685.618 343.397C680.631 381.288 660.813 413.036 633.757 429.302V431.169H711Z" fill="#FFD911"/>
<path d="M498.695 331.819C482.823 379.459 469.518 431.171 469.518 431.171H546.78V426.128C519.574 407.341 500.724 372.4 498.695 331.819Z" fill="#FFD911"/>
<path d="M685.534 343.399C686.366 337.158 686.783 330.87 686.781 324.574C686.781 260.35 644.633 208.284 592.623 208.284C540.613 208.284 498.483 260.35 498.483 324.574C498.483 327.002 498.483 329.429 498.688 331.82C500.698 372.401 519.567 407.342 546.772 426.129C560.196 435.627 576.198 440.769 592.623 440.864C607.105 440.817 621.3 436.801 633.673 429.248C660.748 413.038 680.547 381.29 685.534 343.399Z" fill="url(#paint0_linear_125_1143)" stroke="#E27407" stroke-width="10.3191" stroke-miterlimit="10"/>
<path d="M684.79 370.774C693.889 371.988 702.896 360.522 704.887 345.208C706.878 329.895 701.165 316.486 692.047 315.328C682.929 314.17 675.634 369.654 684.79 370.774Z" fill="#E27407"/>
<path d="M498.327 370.774C489.228 371.988 480.221 360.521 478.211 345.208C476.202 329.894 481.933 316.486 491.07 315.328C500.206 314.17 507.427 369.653 498.327 370.774Z" fill="#E27407"/>
<path d="M505.494 220.441C489.751 231.74 487.63 250.321 489.863 267.129C491.709 279.503 495.351 291.539 500.674 302.854C500.674 302.854 536.886 276.205 556.201 237.491C556.201 237.491 582.253 307.766 688.972 307.766C706.11 307.766 689.623 235.363 688.972 235.083C674.495 196.313 642.935 181.933 603.374 172.67C591.743 169.962 579.853 170.952 568.018 172.782C510.332 181.672 505.494 220.441 505.494 220.441Z" fill="#FFD911"/>
<path d="M157.819 424.005C209.821 424.005 251.977 371.94 251.977 307.715C251.977 243.49 209.821 191.426 157.819 191.426C105.817 191.426 63.6606 243.49 63.6606 307.715C63.6606 371.94 105.817 424.005 157.819 424.005Z" fill="url(#paint1_linear_125_1143)" stroke="#E27407" stroke-width="10.3191" stroke-miterlimit="10"/>
<path d="M68.4841 220.505C34.6913 244.783 63.6645 302.862 63.6645 302.862C63.6645 302.862 99.8764 276.213 119.192 237.499C119.192 237.499 121.164 268.985 227.828 268.985C256.801 268.985 252.614 235.37 252.018 235.071C237.541 196.302 205.981 181.922 166.42 172.678C154.79 169.951 142.899 170.96 131.064 172.79C73.3223 181.736 68.4841 220.505 68.4841 220.505Z" fill="#DDDCD9"/>
<path d="M249.972 354.01C259.071 355.205 268.078 343.738 270.069 328.424C272.06 313.111 266.347 299.702 257.229 298.544C248.111 297.386 240.872 352.796 249.972 354.01Z" fill="#E27407"/>
<path d="M63.4928 354.01C54.3933 355.205 45.3869 343.738 43.3958 328.424C41.4047 313.111 47.1174 299.702 56.2355 298.544C65.3536 297.386 72.5923 352.796 63.4928 354.01Z" fill="#E27407"/>
<ellipse cx="364.731" cy="367.71" rx="170.388" ry="133.252" fill="#1B1915"/>
<path d="M462.787 485.497C463.619 479.257 464.036 472.968 464.034 466.673C464.034 402.449 421.886 350.383 369.876 350.383C317.866 350.383 275.736 402.449 275.736 466.673C275.736 469.101 275.736 471.528 275.941 473.919C277.951 514.499 296.82 549.44 324.025 568.228C337.449 577.726 353.451 582.868 369.876 582.962C384.358 582.916 398.553 578.9 410.926 571.347C438.001 555.137 457.8 523.389 462.787 485.497Z" fill="url(#paint2_linear_125_1143)" stroke="#E27407" stroke-width="10.3191" stroke-miterlimit="10"/>
<path d="M462.05 512.873C471.15 514.087 480.156 502.62 482.147 487.307C484.138 471.993 478.425 458.585 469.307 457.427C460.189 456.269 452.895 511.752 462.05 512.873Z" fill="#E27407"/>
<path d="M275.578 512.873C266.479 514.087 257.472 502.62 255.462 487.307C253.453 471.993 259.184 458.585 268.321 457.427C277.457 456.269 284.678 511.752 275.578 512.873Z" fill="#E27407"/>
<path d="M280.781 351.004C264.88 359.666 262.737 373.912 264.993 386.798C266.857 396.285 270.536 405.513 275.913 414.187C275.913 414.187 312.489 393.756 331.999 364.076C331.999 364.076 358.313 417.953 466.107 417.953C483.417 417.953 466.764 362.444 466.107 362.229C451.483 332.506 419.606 321.481 379.646 314.379C367.899 312.303 355.889 313.062 343.934 314.465C285.668 321.28 280.781 351.004 280.781 351.004Z" fill="#211407"/>
<defs>
<linearGradient id="paint0_linear_125_1143" x1="498.483" y1="324.574" x2="686.781" y2="324.574" gradientUnits="userSpaceOnUse">
<stop stop-color="#FF9900"/>
<stop offset="0.3" stop-color="#FE9B09"/>
<stop offset="0.78" stop-color="#FDA123"/>
<stop offset="1" stop-color="#FCA430"/>
</linearGradient>
<linearGradient id="paint1_linear_125_1143" x1="21789.7" y1="18581.5" x2="40847.4" y2="18581.5" gradientUnits="userSpaceOnUse">
<stop stop-color="#FF9900"/>
<stop offset="0.3" stop-color="#FE9B09"/>
<stop offset="0.78" stop-color="#FDA123"/>
<stop offset="1" stop-color="#FCA430"/>
</linearGradient>
<linearGradient id="paint2_linear_125_1143" x1="275.736" y1="466.673" x2="464.034" y2="466.673" gradientUnits="userSpaceOnUse">
<stop stop-color="#FF9900"/>
<stop offset="0.3" stop-color="#FE9B09"/>
<stop offset="0.78" stop-color="#FDA123"/>
<stop offset="1" stop-color="#FCA430"/>
</linearGradient>
</defs>
</svg>
