<svg width="63" height="63" viewBox="0 0 63 63" fill="none" xmlns="http://www.w3.org/2000/svg">
<g clip-path="url(#clip0_10_819)">
<path d="M30.9764 20.9306C31.4397 18.2189 32.4437 16.1412 33.9881 14.6979C35.5326 13.2326 37.5956 12.5 40.1771 12.5C41.7656 12.5 43.3983 12.8717 45.0752 13.6154L44.3139 15.9444C42.6372 15.354 41.2141 15.0587 40.0447 15.0587C37.0439 15.0587 35.1906 17.016 34.4846 20.9306H42.8578V22.9972H34.2529C34.2308 23.369 34.2198 23.9267 34.2198 24.6702V25.2607H41.8649V27.3274H34.3191C34.4956 29.405 34.9699 30.9905 35.7422 32.0839C36.5144 33.1555 37.7501 33.6914 39.4489 33.6914C40.1771 33.6914 40.8831 33.6039 41.5671 33.4289C42.2511 33.254 42.9681 33.0244 43.7183 32.74L44.3802 35.0362C42.7474 35.8455 41.0486 36.25 39.2834 36.25C36.5476 36.25 34.5066 35.4955 33.1607 33.9865C31.8369 32.4558 31.0426 30.236 30.7778 27.3274H28.8252V25.2607H30.6786V24.7686C30.6786 24.375 30.7006 23.7845 30.7447 22.9972H28.8252V20.9306H30.9764Z" fill="white"/>
<path d="M38.0429 46.826C50.1019 46.826 59.8778 37.0501 59.8778 24.9911C59.8778 12.9321 50.1019 3.15625 38.0429 3.15625C25.9839 3.15625 16.208 12.9321 16.208 24.9911C16.208 37.0501 25.9839 46.826 38.0429 46.826Z" stroke="white" stroke-width="3.75" stroke-linecap="round" stroke-linejoin="round"/>
<path d="M5.44547 27.3831C3.76931 30.4737 2.81738 34.0142 2.81738 37.7771C2.81738 49.8354 12.5924 59.6104 24.6506 59.6104C28.0678 59.6104 31.3017 58.8251 34.1817 57.4256" stroke="white" stroke-width="3.75" stroke-linecap="round" stroke-linejoin="round"/>
</g>
<defs>
<clipPath id="clip0_10_819">
<rect width="62.5" height="62.5" fill="white" transform="translate(0.0751953)"/>
</clipPath>
</defs>
</svg>
