<svg width="21" height="21" viewBox="0 0 21 21" fill="none" xmlns="http://www.w3.org/2000/svg">
<mask id="mask0_16_172" style="mask-type:luminance" maskUnits="userSpaceOnUse" x="0" y="0" width="21" height="21">
<path d="M20.2623 0.816406H0.822266V20.2564H20.2623V0.816406Z" fill="white"/>
</mask>
<g mask="url(#mask0_16_172)">
<mask id="mask1_16_172" style="mask-type:luminance" maskUnits="userSpaceOnUse" x="0" y="0" width="20" height="20">
<path d="M19.7233 0.816406H0.903809V19.4607H19.7233V0.816406Z" fill="white"/>
</mask>
<g mask="url(#mask1_16_172)">
<path fill-rule="evenodd" clip-rule="evenodd" d="M10.3136 2.43641C6.00357 2.43641 2.52381 5.89258 2.52381 10.1385C2.52381 14.3846 6.00357 17.8407 10.3136 17.8407C14.6236 17.8407 18.1033 14.3846 18.1033 10.1385C18.1033 5.89258 14.6236 2.43641 10.3136 2.43641ZM0.903809 10.1385C0.903809 4.98227 5.12455 0.816406 10.3136 0.816406C15.5026 0.816406 19.7233 4.98227 19.7233 10.1385C19.7233 15.2948 15.5026 19.4607 10.3136 19.4607C5.12455 19.4607 0.903809 15.2948 0.903809 10.1385Z" fill="#323232"/>
<path fill-rule="evenodd" clip-rule="evenodd" d="M7.8987 4.40757C8.09868 4.80775 7.93639 5.29426 7.53621 5.49422C6.14998 6.18693 4.97592 8.01265 4.63423 10.1882C4.56483 10.6302 4.15031 10.9322 3.70837 10.8628C3.26644 10.7934 2.96444 10.3788 3.03385 9.93689C3.4271 7.43304 4.80885 5.04611 6.81206 4.04508C7.21223 3.84511 7.69874 4.00741 7.8987 4.40757Z" fill="#323232"/>
<path d="M7.72756 8.46323C7.92412 7.6165 8.29835 6.97769 8.8502 6.54677C9.40213 6.11585 10.1089 5.90039 10.9708 5.90039C11.311 5.90039 11.6021 5.92685 11.844 5.97977C12.0859 6.03269 12.3279 6.10451 12.5697 6.19523L12.2182 7.51067C12.0367 7.45019 11.8516 7.40104 11.6625 7.36325C11.4735 7.31789 11.2392 7.29521 10.9594 7.29521C10.5058 7.29521 10.1506 7.39349 9.89348 7.59005C9.644 7.7866 9.46256 8.07767 9.34916 8.46323H11.8666L11.6512 9.58591H9.20174C9.19421 9.66902 9.1904 9.74087 9.1904 9.80137C9.1904 9.85427 9.1904 9.91097 9.1904 9.97147C9.1904 10.0319 9.1904 10.0849 9.1904 10.1302C9.1904 10.1756 9.19421 10.2398 9.20174 10.323H11.5151L11.2996 11.4457H9.34916C9.47771 11.8993 9.67049 12.2168 9.9275 12.3982C10.1846 12.5721 10.5058 12.6591 10.8914 12.6591C11.1409 12.6591 11.3942 12.6364 11.6512 12.591C11.9083 12.5457 12.1653 12.47 12.4223 12.3642L12.7512 13.6683C12.547 13.7741 12.2825 13.8648 11.9574 13.9405C11.6398 14.0236 11.2656 14.0652 10.8347 14.0652C9.88975 14.0652 9.16772 13.8384 8.66876 13.3848C8.16982 12.9236 7.84096 12.2772 7.6822 11.4457H6.86572V10.323H7.58014C7.57258 10.2398 7.5688 10.1756 7.5688 10.1302C7.5688 10.0849 7.5688 10.0319 7.5688 9.97147C7.5688 9.91097 7.5688 9.84673 7.5688 9.77869C7.5688 9.71065 7.57258 9.64634 7.58014 9.58591H6.86572V8.46323H7.72756Z" fill="#323232"/>
</g>
</g>
</svg>
