<svg width="68" height="62" viewBox="0 0 68 62" fill="none" xmlns="http://www.w3.org/2000/svg">
<g clip-path="url(#clip0_204_289)">
<path d="M34.0371 40.1636C37.819 40.1636 40.8974 37.0852 40.8974 33.3033C40.8974 29.5213 37.819 26.443 34.0371 26.443C30.2552 26.443 27.1768 29.5213 27.1768 33.3033C27.1768 37.0852 30.2552 40.1636 34.0371 40.1636ZM34.0371 29.6092C36.0741 29.6092 37.7311 31.2663 37.7311 33.3033C37.7311 35.3403 36.0741 36.9973 34.0371 36.9973C32.0001 36.9973 30.3431 35.3403 30.3431 33.3033C30.3431 31.2663 32.0001 29.6092 34.0371 29.6092Z" fill="white"/>
<path d="M66.7442 28.9478L35.0812 1.15475C34.4831 0.630547 33.5896 0.630547 32.9915 1.15475L1.32851 28.9478C0.994288 29.2398 0.797275 29.662 0.790238 30.1087C0.783202 30.5521 0.962627 30.9813 1.28629 31.2874L7.61892 37.2681C8.20292 37.8169 9.10354 37.8486 9.71916 37.3349L34.0364 17.0707L58.3535 37.3349C58.649 37.5777 59.0079 37.7009 59.3667 37.7009C59.7573 37.7009 60.1513 37.5566 60.4538 37.2681L66.7865 31.2874C67.1101 30.9813 67.2895 30.5521 67.2825 30.1087C67.2755 29.662 67.0784 29.2398 66.7442 28.9478ZM59.2996 34.0032L35.0493 13.7917C34.7572 13.549 34.3949 13.4258 34.036 13.4258C33.6772 13.4258 33.3149 13.549 33.0229 13.7917L8.77249 34.0032L4.72318 30.1791L34.036 4.45114L63.3489 30.1791L59.2996 34.0032Z" fill="white"/>
<path d="M53.9136 36.9022V55.4673C53.9136 56.9238 52.7315 58.1059 51.2751 58.1059H42.6557V47.8084C42.6557 46.1583 41.3153 44.818 39.6653 44.818H27.7037C26.0538 44.818 24.7133 46.1583 24.7133 47.8084V58.1059H16.0939C14.6375 58.1059 13.4554 56.9238 13.4554 55.4673V37.4898L10.2891 40.1283V55.4673C10.2891 58.6688 12.8925 61.2722 16.0939 61.2722H51.2751C54.4765 61.2722 57.0799 58.6688 57.0799 55.4673V39.5408L53.9136 36.9022ZM39.4894 58.1059H27.8796V47.9843H39.4894V58.1059Z" fill="white"/>
</g>
<defs>
<clipPath id="clip0_204_289">
<rect width="67.2" height="60.8337" fill="white" transform="translate(0.400391 0.599976)"/>
</clipPath>
</defs>
</svg>
