<svg width="145" height="163" viewBox="0 0 145 163" fill="none" xmlns="http://www.w3.org/2000/svg">
<path d="M138.571 161.596H6.42529L6.42529 77.834L72.5794 8.58057L138.571 77.834V161.596Z" fill="#FDFDFD"/>
<path d="M139.975 163H5.02197L5.02197 77.2727L72.5797 6.5481L139.975 77.2727V163ZM7.82939 160.193H137.167V78.3956L72.5797 10.6189L7.82939 78.4012L7.82939 160.193Z" fill="#332212"/>
<path d="M142.447 74.6579L74.3675 2.4791C74.1542 2.24889 73.9071 2.08606 73.6544 1.9513C73.6151 1.92884 73.5814 1.912 73.5421 1.88954C73.4692 1.85585 73.3962 1.82777 73.3232 1.80531C72.4248 1.46842 71.3973 1.66494 70.6561 2.45102L2.54249 74.6579C1.45882 75.8089 1.38583 77.7741 2.39088 79.0206C3.39594 80.2671 5.10285 80.3457 6.19213 79.1947L72.4978 8.90247L138.803 79.1947C139.887 80.3457 141.6 80.2671 142.605 79.0206C143.604 77.7741 143.537 75.8089 142.447 74.6579Z" fill="#D61B1B"/>
<path d="M140.624 81.4113C139.563 81.4113 138.535 80.9565 137.777 80.1536L72.4937 10.945L7.20995 80.1536C6.41825 80.9958 5.32336 81.4562 4.21723 81.4057C3.09427 81.3608 2.03306 80.8105 1.29752 79.8953C-0.156726 78.0873 -0.0556599 75.3641 1.52211 73.6909L69.6301 1.48961C70.7363 0.316104 72.3365 -0.0657083 73.8132 0.495776C73.8918 0.52385 74.0097 0.56877 74.122 0.619303C74.2062 0.664222 74.2624 0.68668 74.3073 0.714755C74.7228 0.928119 75.0765 1.19202 75.3797 1.51768L143.465 73.6965C145.043 75.3697 145.144 78.0929 143.69 79.9009C142.954 80.8161 141.888 81.3664 140.77 81.4113C140.72 81.4113 140.669 81.4113 140.624 81.4113ZM72.4937 6.85739L139.816 78.2277C140.057 78.486 140.343 78.6151 140.658 78.6039C140.972 78.5926 141.27 78.4242 141.506 78.1378C142.067 77.436 142.034 76.2625 141.427 75.6224L73.3416 3.44357C73.2573 3.35373 73.145 3.27513 72.9991 3.19652L72.9317 3.15721C72.9204 3.1516 72.8868 3.14037 72.8587 3.12914C72.4151 2.96069 71.994 3.06738 71.6683 3.40988L3.5603 75.6224C2.9539 76.2625 2.92021 77.4416 3.48169 78.1378C3.7119 78.4242 4.0151 78.587 4.32953 78.6039C4.63273 78.6151 4.9247 78.486 5.17176 78.2277L72.4937 6.85739Z" fill="#332212"/>
<path d="M55.3273 78.3174H19.7742V103.871H55.3273V78.3174Z" fill="#212121"/>
<path d="M83.5924 121.515H60.8186V160.397H83.5924V121.515Z" fill="#DB0A0A"/>
<path d="M84.718 161.519H59.6982V120.39H84.718V161.519ZM61.9386 159.273H82.4664V122.636H61.9386V159.273Z" fill="#212121"/>
<path d="M75.1178 125.585H69.3008V144.474H75.1178V125.585Z" fill="#6C6C6C"/>
<path d="M77.531 146.378H66.8853V148.545H77.531V146.378Z" fill="#C6C6C2"/>
<path d="M52.7544 80.3545H38.5713V101.466H52.7544V80.3545Z" fill="#95C1FF"/>
<path d="M36.5361 80.353H22.353V101.465H36.5361V80.353Z" fill="#95C1FF"/>
<path d="M123.106 78.3171H87.5525V103.87H123.106V78.3171Z" fill="#212121"/>
<path d="M120.52 80.3599H106.337V101.472H120.52V80.3599Z" fill="#95C1FF"/>
<path d="M104.309 80.3572H90.1262V101.469H104.309V80.3572Z" fill="#95C1FF"/>
<path d="M123.157 123.677H103.527V152.38H123.157V123.677Z" fill="#212121"/>
<path d="M121.127 125.523H105.552V150.52H121.127V125.523Z" fill="#95C1FF"/>
<path d="M78.2472 30.4343H66.3943V59.1374H78.2472V30.4343Z" fill="#212121"/>
<path d="M76.6149 32.7583H68.0242V56.8067H76.6149V32.7583Z" fill="#95C1FF"/>
<path d="M39.43 123.675H19.8005V152.378H39.43V123.675Z" fill="#212121"/>
<path d="M37.3952 125.523H21.8196V150.521H37.3952V125.523Z" fill="#95C1FF"/>
<path d="M89.3411 135.414H86.0059V138.935H89.3411V135.414Z" fill="white"/>
<path d="M89.8195 134.658H85.5579V135.584H89.8195V134.658Z" fill="black"/>
<path d="M89.3569 133.729H86.0217V134.655H89.3569V133.729Z" fill="black"/>
<path d="M58.0413 135.41H54.7061V138.93H58.0413V135.41Z" fill="white"/>
<path d="M58.5175 134.651H54.2559V135.578H58.5175V134.651Z" fill="black"/>
<path d="M58.0593 133.724H54.7241V134.65H58.0593V133.724Z" fill="black"/>
<path d="M136.597 160.643H7.51733V162.428H136.597V160.643Z" fill="#332212"/>
</svg>
