<svg width="214" height="250" viewBox="0 0 214 250" fill="none" xmlns="http://www.w3.org/2000/svg">
<path d="M214 205.082C214 231.832 166.1 249.665 107 249.665C47.9003 249.665 0 231.832 0 205.082C0 178.332 47.9003 160.498 107 160.498C166.1 160.498 214 178.332 214 205.082Z" fill="url(#paint0_radial_121_124)"/>
<path d="M106.998 0C83.3492 0 60.6694 9.39432 43.9474 26.1163C27.2254 42.8383 17.8311 65.5182 17.8311 89.1667C17.8311 109.568 29.4227 131.075 42.6729 149.301C56.1727 167.901 72.5794 184.718 84.5099 196.024C90.5637 201.816 98.6191 205.049 106.998 205.049C115.376 205.049 123.432 201.816 129.486 196.024C141.416 184.718 157.823 167.901 171.323 149.301C184.555 131.075 196.164 109.568 196.164 89.1667C196.164 77.4571 193.858 65.8622 189.377 55.0441C184.896 44.2259 178.328 34.3962 170.048 26.1163C161.768 17.8364 151.939 11.2685 141.12 6.78741C130.302 2.30636 118.707 0 106.998 0Z" fill="url(#paint1_linear_121_124)"/>
<path d="M133.75 89.168C133.75 96.2629 130.931 103.067 125.915 108.084C120.898 113.101 114.093 115.919 106.998 115.919C99.9035 115.919 93.0992 113.101 88.0824 108.084C83.0655 103.067 80.2471 96.2629 80.2471 89.168C80.2471 82.0731 83.0655 75.2688 88.0824 70.2519C93.0992 65.2351 99.9035 62.4167 106.998 62.4167C114.093 62.4167 120.898 65.2351 125.915 70.2519C130.931 75.2688 133.75 82.0731 133.75 89.168Z" fill="url(#paint2_linear_121_124)"/>
<defs>
<radialGradient id="paint0_radial_121_124" cx="0" cy="0" r="1" gradientUnits="userSpaceOnUse" gradientTransform="translate(99.3495 190.226) rotate(-10.0245) scale(170.75 71.2706)">
<stop stop-color="#262626"/>
<stop offset="0.502" stop-color="#979797"/>
<stop offset="1" stop-color="#323232"/>
</radialGradient>
<linearGradient id="paint1_linear_121_124" x1="-21.1704" y1="-58.5825" x2="124.278" y2="173.607" gradientUnits="userSpaceOnUse">
<stop stop-color="#FFF7D6"/>
<stop offset="1" stop-color="#8AC03A"/>
</linearGradient>
<linearGradient id="paint2_linear_121_124" x1="83.3502" y1="91.54" x2="111.207" y2="120.503" gradientUnits="userSpaceOnUse">
<stop stop-color="#FDFDFD"/>
<stop offset="1" stop-color="#CDE1FD"/>
</linearGradient>
</defs>
</svg>
