<svg width="66" height="65" viewBox="0 0 66 65" fill="none" xmlns="http://www.w3.org/2000/svg">
<g clip-path="url(#clip0_204_285)">
<path d="M59.8733 56.8631C59.9457 57.5052 59.8806 58.1551 59.6834 58.7706C59.4862 59.3857 59.1612 59.9523 58.7292 60.4328C58.2963 60.9125 57.7663 61.2955 57.175 61.5555C56.5832 61.8159 55.943 61.9481 55.2967 61.9431H10.6295C9.9832 61.9481 9.34314 61.8159 8.75156 61.5555C8.15992 61.2955 7.63015 60.9125 7.19711 60.4328C6.76523 59.9523 6.44002 59.3857 6.24281 58.7706C6.04561 58.1551 5.9809 57.5052 6.05298 56.8631L10.0803 20.754H55.8459L59.8733 56.8631Z" stroke="white" stroke-width="3.64045" stroke-linecap="round" stroke-linejoin="round"/>
<path d="M21.5225 20.7539V13.8891C21.5225 10.8546 22.7279 7.94443 24.8736 5.79873C27.0193 3.65306 29.9294 2.44763 32.9639 2.44763C35.9983 2.44763 38.9085 3.65306 41.0542 5.79873C43.1999 7.94443 44.4053 10.8546 44.4053 13.8891V20.7539" stroke="white" stroke-width="3.64045" stroke-linecap="round" stroke-linejoin="round"/>
</g>
<defs>
<clipPath id="clip0_204_285">
<rect width="64.8" height="64.0719" fill="white" transform="translate(0.599609 0.159424)"/>
</clipPath>
</defs>
</svg>
