<svg width="41" height="31" viewBox="0 0 41 31" fill="none" xmlns="http://www.w3.org/2000/svg">
<path d="M39.9 14.1271C38.0883 5.93605 35.3616 1.56417 31.3169 0.369976C30.4667 0.12055 29.5847 -0.00404266 28.6987 9.99978e-05C27.5276 9.99978e-05 26.5077 0.285408 25.4288 0.5878C24.1287 0.952551 22.6517 1.36685 20.4982 1.36685C18.3448 1.36685 16.867 0.953405 15.5643 0.588655C14.4846 0.285408 13.4655 9.99978e-05 12.2978 9.99978e-05C11.3816 -0.00312116 10.4693 0.121075 9.58734 0.369121C5.56399 1.55819 2.83904 5.92836 1.00076 14.122C-0.975891 22.9392 -0.00293891 28.5061 3.72913 29.7977C4.2407 29.9781 4.77896 30.0711 5.32139 30.0728C7.87806 30.0728 9.92817 27.9432 11.3291 26.1998C12.912 24.2265 14.7647 23.2254 20.4982 23.2254C25.6193 23.2254 27.7386 23.9199 29.5692 26.1998C30.7198 27.6331 31.8072 28.636 32.8921 29.2672C34.3348 30.1061 35.7767 30.2923 37.1768 29.8114C39.3824 29.0588 40.6466 27.0693 40.9354 23.8968C41.1549 21.464 40.8166 18.2684 39.9 14.1271ZM16.398 13.6676H13.6645V16.401C13.6645 16.7635 13.5205 17.1112 13.2642 17.3675C13.0079 17.6238 12.6603 17.7678 12.2978 17.7678C11.9353 17.7678 11.5876 17.6238 11.3313 17.3675C11.075 17.1112 10.931 16.7635 10.931 16.401V13.6676H8.19753C7.83505 13.6676 7.48741 13.5236 7.2311 13.2672C6.97478 13.0109 6.83079 12.6633 6.83079 12.3008C6.83079 11.9383 6.97478 11.5907 7.2311 11.3344C7.48741 11.0781 7.83505 10.9341 8.19753 10.9341H10.931V8.20057C10.931 7.83809 11.075 7.49045 11.3313 7.23414C11.5876 6.97782 11.9353 6.83383 12.2978 6.83383C12.6603 6.83383 13.0079 6.97782 13.2642 7.23414C13.5205 7.49045 13.6645 7.83809 13.6645 8.20057V10.9341H16.398C16.7605 10.9341 17.1081 11.0781 17.3644 11.3344C17.6208 11.5907 17.7648 11.9383 17.7648 12.3008C17.7648 12.6633 17.6208 13.0109 17.3644 13.2672C17.1081 13.5236 16.7605 13.6676 16.398 13.6676ZM23.5734 14.0092C23.2355 14.0092 22.9052 13.909 22.6243 13.7213C22.3433 13.5336 22.1243 13.2668 21.995 12.9546C21.8657 12.6424 21.8319 12.2989 21.8978 11.9675C21.9637 11.6361 22.1264 11.3317 22.3654 11.0928C22.6043 10.8538 22.9087 10.6911 23.2401 10.6252C23.5715 10.5593 23.915 10.5931 24.2272 10.7224C24.5394 10.8517 24.8062 11.0707 24.9939 11.3517C25.1817 11.6326 25.2819 11.9629 25.2819 12.3008C25.2819 12.7539 25.1019 13.1885 24.7815 13.5089C24.4611 13.8292 24.0265 14.0092 23.5734 14.0092ZM27.332 17.7678C26.9939 17.7678 26.6634 17.6675 26.3824 17.4796C26.1013 17.2917 25.8824 17.0246 25.7532 16.7122C25.624 16.3997 25.5904 16.056 25.6567 15.7245C25.723 15.393 25.8861 15.0886 26.1254 14.8498C26.3648 14.611 26.6696 14.4487 27.0013 14.3832C27.333 14.3178 27.6766 14.3522 27.9887 14.4822C28.3008 14.6122 28.5673 14.8318 28.7546 15.1133C28.9418 15.3948 29.0412 15.7256 29.0404 16.0636C29.0393 16.516 28.8588 16.9494 28.5385 17.2689C28.2182 17.5884 27.7843 17.7678 27.332 17.7678ZM27.332 10.2507C26.9941 10.2507 26.6638 10.1505 26.3828 9.96277C26.1019 9.77504 25.8829 9.50822 25.7536 9.19605C25.6243 8.88387 25.5904 8.54036 25.6564 8.20896C25.7223 7.87756 25.885 7.57314 26.1239 7.33422C26.3629 7.09529 26.6673 6.93257 26.9987 6.86665C27.3301 6.80073 27.6736 6.83457 27.9858 6.96387C28.2979 7.09318 28.5648 7.31216 28.7525 7.59311C28.9402 7.87406 29.0404 8.20436 29.0404 8.54226C29.0404 8.99536 28.8604 9.42991 28.54 9.7503C28.2196 10.0707 27.7851 10.2507 27.332 10.2507ZM31.0905 14.0092C30.7526 14.0092 30.4223 13.909 30.1414 13.7213C29.8604 13.5336 29.6414 13.2668 29.5121 12.9546C29.3828 12.6424 29.349 12.2989 29.4149 11.9675C29.4808 11.6361 29.6435 11.3317 29.8825 11.0928C30.1214 10.8538 30.4258 10.6911 30.7572 10.6252C31.0886 10.5593 31.4321 10.5931 31.7443 10.7224C32.0565 10.8517 32.3233 11.0707 32.511 11.3517C32.6988 11.6326 32.799 11.9629 32.799 12.3008C32.799 12.7539 32.619 13.1885 32.2986 13.5089C31.9782 13.8292 31.5436 14.0092 31.0905 14.0092Z" fill="white"/>
</svg>
