<svg width="49" height="49" viewBox="0 0 49 49" fill="none" xmlns="http://www.w3.org/2000/svg">
<g clip-path="url(#clip0_19_327)">
<path d="M20.0032 14.8867C19.3122 14.8867 18.5569 15.1349 18.0356 15.7231C17.3528 16.4934 17.1388 18.7952 17.1641 19.9569C18.3169 19.9848 20.521 19.9542 21.4139 19.0663C22.3476 18.1378 22.6031 16.5153 21.6102 15.5279C21.1781 15.0982 20.6012 14.8867 20.0032 14.8867Z" fill="white"/>
<path d="M11.2041 14.887C11.895 14.887 12.6503 15.1352 13.1716 15.7234C13.8544 16.4936 14.0685 18.7955 14.0431 19.9571C12.8903 19.985 10.6861 19.9544 9.79329 19.0666C8.85965 18.138 8.60416 16.5156 9.59698 15.5282C10.0291 15.0984 10.606 14.887 11.2041 14.887Z" fill="white"/>
<path d="M23.7859 13.3483C25.539 15.0915 25.7725 17.839 24.5714 19.9571H48.2504V12.2225C48.2504 9.7949 46.2788 7.8269 43.8468 7.8269H17.1426V12.5729C19.3007 11.3551 22.0277 11.6001 23.7859 13.3483C24.7846 14.3415 22.0277 11.6001 23.7859 13.3483Z" fill="white"/>
<path d="M10.6827 28.6083L8.498 26.4377L11.8922 23.0339H0.25V37.2773C0.25 39.705 2.22159 41.673 4.65359 41.673H14.0596V25.2218L10.6827 28.6083Z" fill="white"/>
<path d="M19.2965 23.0339L22.6455 26.4096L20.4551 28.5746L17.1426 25.2356V41.673H43.8468C46.2788 41.673 48.2504 39.705 48.2504 37.2774V23.0339H19.2965Z" fill="white"/>
<path d="M6.63082 19.9571C5.42949 17.8387 5.66344 15.0914 7.41636 13.3483C9.17441 11.6001 11.9014 11.3552 14.0596 12.5729V7.8269H4.65359C2.22159 7.8269 0.25 9.7949 0.25 12.2225V19.9571H6.63082Z" fill="white"/>
</g>
<defs>
<clipPath id="clip0_19_327">
<rect width="48" height="48" fill="white" transform="translate(0.25 0.75)"/>
</clipPath>
</defs>
</svg>
