<svg width="48" height="48" viewBox="0 0 48 48" fill="none" xmlns="http://www.w3.org/2000/svg">
<g clip-path="url(#clip0_19_292)">
<path d="M47.8117 23.2972L44.9732 18.3802V12.7034C44.9732 12.201 44.7052 11.7366 44.27 11.4855L39.3532 8.64708L36.5149 3.73026C36.2636 3.29517 35.7994 3.02714 35.297 3.02714H29.6201L24.7031 0.188576C24.2681 -0.0624863 23.7321 -0.0625801 23.2969 0.188576L18.38 3.02704H12.7031C12.2007 3.02704 11.7364 3.29508 11.4852 3.73026L8.64696 8.64708L3.73005 11.4855C3.29487 11.7366 3.02684 12.2009 3.02684 12.7034V18.3802L0.188367 23.2972C-0.0627891 23.7323 -0.0627891 24.2682 0.188367 24.7033L3.02674 29.6203V35.2971C3.02674 35.7995 3.29477 36.2639 3.72996 36.515L8.64687 39.3534L11.4852 44.2702C11.7364 44.7054 12.2006 44.9734 12.7031 44.9734H18.3801L23.297 47.8119C23.5145 47.9374 23.7573 48.0002 24.0001 48.0002C24.2429 48.0002 24.4856 47.9374 24.7031 47.8119L29.6201 44.9734H35.2969C35.7993 44.9734 36.2636 44.7054 36.5148 44.2703L39.3531 39.3535L44.2699 36.5151C44.7051 36.264 44.9731 35.7997 44.9731 35.2972V29.6204L47.8116 24.7034C48.0628 24.2682 48.0628 23.7323 47.8117 23.2972ZM38.1143 23.4524L36.4407 30.9841C35.9876 33.0213 34.2137 34.444 32.1269 34.444H13.4562C12.6796 34.444 12.05 33.8144 12.05 33.0377V20.9878C12.05 20.2111 12.6796 19.5815 13.4562 19.5815H19.122C20.3416 18.8533 21.0875 17.5513 21.0875 16.1135V11.9503C21.0875 11.1736 21.7171 10.544 22.4937 10.544H24.7531C27.6138 10.544 29.925 12.8588 29.925 15.7159V18.0752H33.8012C35.1484 18.0752 36.4046 18.678 37.2478 19.7289C38.0905 20.7802 38.4061 22.1372 38.1143 23.4524Z" fill="white"/>
<path d="M33.8014 20.8875H28.5189C27.7423 20.8875 27.1127 20.2579 27.1127 19.4813V15.7156C27.1127 14.4019 26.0471 13.3562 24.7533 13.3562H23.9002V16.1132C23.9002 18.423 22.7656 20.527 20.8877 21.7917V31.6313H32.1272C32.8858 31.6313 33.5307 31.114 33.6954 30.3734L35.369 22.8423C35.4751 22.3641 35.3603 21.8703 35.054 21.4881C34.7477 21.1066 34.291 20.8875 33.8014 20.8875Z" fill="white"/>
<path d="M14.8623 22.3938H18.0748V31.6313H14.8623V22.3938Z" fill="white"/>
</g>
<defs>
<clipPath id="clip0_19_292">
<rect width="48" height="48" fill="white"/>
</clipPath>
</defs>
</svg>
