<svg width="49" height="49" viewBox="0 0 49 49" fill="none" xmlns="http://www.w3.org/2000/svg">
<path fill-rule="evenodd" clip-rule="evenodd" d="M33.25 14.25C33.25 15.078 32.578 15.75 31.75 15.75C30.922 15.75 30.25 15.078 30.25 14.25V11.25C30.25 8.212 27.788 5.75 24.75 5.75C21.712 5.75 19.25 8.212 19.25 11.25V14.25C19.25 15.078 18.578 15.75 17.75 15.75C16.922 15.75 16.25 15.078 16.25 14.25V11.25C16.25 6.556 20.056 2.75 24.75 2.75C29.444 2.75 33.25 6.556 33.25 11.25V14.25Z" fill="white"/>
<path fill-rule="evenodd" clip-rule="evenodd" d="M39.4338 16.95L41.0338 40.95C41.1158 42.194 40.6798 43.414 39.8298 44.324C38.9778 45.234 37.7878 45.75 36.5438 45.75H12.9558C11.7118 45.75 10.5218 45.234 9.66984 44.324C8.81984 43.414 8.38384 42.194 8.46584 40.95L10.0658 16.95C10.2238 14.586 12.1878 12.75 14.5558 12.75H34.9438C37.3118 12.75 39.2758 14.586 39.4338 16.95ZM29.7218 21.606C28.8378 23.464 26.9438 24.75 24.7498 24.75C22.5558 24.75 20.6618 23.464 19.7778 21.606C19.4238 20.858 18.5278 20.54 17.7798 20.896C17.0318 21.25 16.7138 22.146 17.0678 22.894C18.4318 25.766 21.3598 27.75 24.7498 27.75C28.1398 27.75 31.0678 25.766 32.4318 22.894C32.7858 22.146 32.4678 21.25 31.7198 20.896C30.9718 20.54 30.0758 20.858 29.7218 21.606Z" fill="white"/>
</svg>
