<svg width="159" height="41" viewBox="0 0 159 41" fill="none" xmlns="http://www.w3.org/2000/svg">
<rect y="0.662476" width="158.587" height="39.675" rx="1.875" fill="white"/>
<g clip-path="url(#clip0_99_62)">
<path d="M127.949 11.9874C129.224 11.9874 130.499 11.9874 131.774 11.9874C131.774 10.4874 131.774 8.98743 131.774 7.48743C130.499 7.48743 129.224 7.48743 127.949 7.48743C127.949 9.02493 127.949 10.4874 127.949 11.9874Z" fill="#212B5E"/>
<path d="M152.587 36.475C152.512 36.5125 90.9746 36.475 90.9746 36.475C90.3371 36.2125 87.4121 35.2375 87.4121 31.7875C87.4121 34.2625 87.6371 38.0875 91.2746 38.0875C91.5371 38.0875 152.512 38.0875 152.512 38.0875C156.112 38.0875 156.375 34.1125 156.375 32.6125C156.3 32.6875 155.662 34.7125 152.587 36.475Z" fill="#172457"/>
<path d="M152.212 2.91248C132 2.91248 111.787 2.91248 91.5371 2.91248C91.0871 3.09998 90.6371 3.21248 90.2246 3.43748C88.4246 4.41248 87.4121 5.94998 87.4121 8.01248C87.4121 15.8875 87.4121 23.875 87.4121 31.75C87.4121 31.75 87.3746 36.475 90.9746 36.475H152.587C156.6 36.475 156.337 32.6875 156.375 32.575C156.375 24.1 156.375 15.5875 156.375 7.11248C156.3 7.03748 156.562 2.91248 152.212 2.91248ZM100.5 31.375C104.325 32.5 107.55 31.375 110.287 28.6C110.587 28.3 110.887 28.15 111.337 28.15C112.575 28.1875 113.812 28.15 115.087 28.15C115.237 28.15 115.387 28.15 115.537 28.1875C114.862 29.5375 113.85 30.85 112.612 31.9375C109.837 34.375 105.862 35.9125 101.4 35.3125C98.5496 34.9375 95.9621 33.6625 93.8996 31.7875C91.0496 29.2 89.2496 25.525 89.1371 21.5125C88.9871 14.4625 93.8246 8.46248 100.725 7.22498C107.212 6.06248 113.4 9.54998 115.762 14.5C115.575 14.5 115.425 14.5 115.275 14.5C114 14.5 112.762 14.5 111.487 14.5C111.187 14.5 110.962 14.425 110.775 14.1625C109.2 12.3625 107.287 11.0875 104.85 10.75C100.012 10.0375 95.5121 12.7375 93.8246 17.3125C91.5746 23.0875 94.6871 29.65 100.5 31.375ZM122.925 32.3125C122.925 33.175 122.925 34 122.925 34.8625C121.687 34.8625 120.45 34.8625 119.175 34.8625C119.175 33.925 119.175 32.95 119.175 32.0125C119.175 23.8375 119.175 15.7 119.175 7.52498C120.45 7.52498 121.65 7.52498 122.925 7.52498C122.925 15.775 122.925 24.0625 122.925 32.3125ZM131.775 32.4625C131.775 33.25 131.775 34.075 131.775 34.8625C130.5 34.8625 129.262 34.8625 128.025 34.8625C128.025 34.0375 128.025 33.25 128.025 32.425C128.025 26.425 128.025 20.4625 128.025 14.425C129.3 14.425 130.537 14.425 131.775 14.425C131.775 20.4625 131.775 26.4625 131.775 32.4625ZM131.775 11.9875C130.5 11.9875 129.225 11.9875 127.95 11.9875C127.95 10.4875 127.95 9.02498 127.95 7.48748C129.225 7.48748 130.5 7.48748 131.775 7.48748C131.775 8.98748 131.775 10.4875 131.775 11.9875ZM149.062 34.8625C148.912 34.8625 148.762 34.6375 148.65 34.4875C148.2 33.85 147.75 33.175 147.3 32.5375C146.25 31.0375 145.237 29.5375 144.187 28.075C144.075 27.925 143.962 27.775 143.85 27.5875C143.662 27.85 143.512 28.0375 143.362 28.2625C142.387 29.6875 141.45 31.1125 140.475 32.5375C140.025 33.2125 139.537 33.8875 139.087 34.5625C138.937 34.7875 138.75 34.9 138.45 34.9C137.137 34.9 135.825 34.9 134.4 34.9C134.925 34.1125 135.487 33.325 136.012 32.5C137.85 29.7625 139.687 27.0625 141.487 24.3625C139.237 21.0625 136.95 17.7625 134.662 14.425C134.887 14.425 135 14.3875 135.15 14.3875C136.387 14.3875 137.625 14.3875 138.9 14.3875C139.2 14.3875 139.387 14.5 139.537 14.7625C140.85 16.75 142.2 18.7375 143.55 20.725C143.625 20.8375 143.737 20.95 143.812 21.1C143.925 20.95 144 20.8375 144.075 20.7625C145.425 18.7375 146.737 16.75 148.087 14.725C148.237 14.5 148.425 14.3875 148.687 14.3875C149.925 14.3875 151.162 14.3875 152.437 14.3875C152.587 14.3875 152.7 14.3875 152.925 14.425C152.812 14.6125 152.7 14.7625 152.625 14.9125C150.6 17.95 148.575 20.9875 146.512 24.025C146.325 24.325 146.325 24.475 146.512 24.775C148.312 27.4 150.075 29.9875 151.837 32.6125C152.25 33.2125 152.662 33.85 153.075 34.45C153.15 34.5625 153.225 34.7125 153.375 34.9C151.875 34.9 150.45 34.9 149.062 34.8625Z" fill="#5E8BC8"/>
<path d="M19.35 16.6749C19.35 17.8374 19.1625 18.8874 18.75 19.8999C18.3375 20.8749 17.775 21.7374 17.0625 22.4874C16.1625 23.3874 15.1125 24.0624 13.875 24.5124C12.6375 24.9624 11.1 25.1874 9.225 25.1874H5.7375V34.9374H2.25V8.79993H9.3375C10.9125 8.79993 12.225 8.94993 13.3125 9.21243C14.4 9.47493 15.375 9.88743 16.2 10.4499C17.2125 11.1249 17.9625 11.9499 18.525 12.9249C19.05 13.8999 19.35 15.1749 19.35 16.6749ZM15.7125 16.7874C15.7125 15.8874 15.5625 15.0999 15.225 14.4249C14.925 13.7499 14.4375 13.2249 13.8 12.7749C13.2375 12.3999 12.6 12.1374 11.8875 11.9874C11.175 11.8374 10.275 11.7624 9.15 11.7624H5.7375V22.1874H8.6625C10.05 22.1874 11.2125 22.0749 12.075 21.8124C12.9375 21.5499 13.65 21.1749 14.2125 20.6124C14.775 20.0499 15.15 19.4499 15.375 18.8499C15.6 18.2499 15.7125 17.5374 15.7125 16.7874Z" fill="#212B5E"/>
<path d="M35.8496 34.9374H32.5871V32.8374C32.2871 33.0249 31.9121 33.3249 31.3871 33.6624C30.8996 34.0374 30.4121 34.2999 29.9246 34.5249C29.3621 34.7874 28.7246 35.0124 28.0121 35.1999C27.2996 35.3874 26.4746 35.4624 25.4996 35.4624C23.7371 35.4624 22.2371 34.8624 20.9996 33.6999C19.7621 32.5374 19.1621 31.0374 19.1621 29.2374C19.1621 27.7374 19.4621 26.5374 20.0996 25.6374C20.7371 24.7374 21.6371 23.9874 22.8371 23.4624C24.0371 22.9374 25.4621 22.5624 27.1496 22.3749C28.8371 22.1874 30.5996 22.0374 32.5496 21.9624V21.4374C32.5496 20.6874 32.3996 20.0874 32.1371 19.5624C31.8746 19.0749 31.4996 18.6999 31.0121 18.3999C30.5621 18.1374 29.9996 17.9499 29.3246 17.8374C28.6871 17.7624 27.9746 17.6874 27.2621 17.6874C26.3996 17.6874 25.4246 17.7999 24.3746 18.0249C23.3246 18.2499 22.1996 18.5874 21.0746 18.9999H20.8871V15.6624C21.5246 15.4749 22.4621 15.2874 23.6621 15.0999C24.8621 14.8749 26.0621 14.7999 27.2621 14.7999C28.6496 14.7999 29.8496 14.9124 30.8621 15.1374C31.8746 15.3624 32.7746 15.7374 33.5246 16.2999C34.2746 16.8249 34.8371 17.5374 35.2121 18.3999C35.5871 19.2624 35.7746 20.3124 35.7746 21.5874V34.9374H35.8496ZM32.5496 30.0999V24.6249C31.5371 24.6999 30.3746 24.7749 28.9871 24.8874C27.6371 24.9999 26.5496 25.1874 25.7621 25.4124C24.8246 25.6749 24.0371 26.0874 23.4746 26.6499C22.8746 27.2124 22.6121 27.9999 22.6121 28.9749C22.6121 30.0999 22.9496 30.9249 23.6246 31.5249C24.2996 32.0874 25.3496 32.3874 26.7371 32.3874C27.8996 32.3874 28.9496 32.1624 29.9246 31.7124C30.8621 31.2624 31.7621 30.7374 32.5496 30.0999Z" fill="#212B5E"/>
<path d="M56.4379 34.9374H53.1379V23.7624C53.1379 22.8624 53.1004 21.9999 52.9879 21.2124C52.8754 20.4249 52.6879 19.7874 52.4254 19.3749C52.1254 18.8874 51.7129 18.5124 51.1504 18.2874C50.5879 18.0624 49.8754 17.9124 49.0129 17.9124C48.1129 17.9124 47.1754 18.1374 46.2004 18.5874C45.2254 19.0374 44.2879 19.5999 43.3879 20.2749V34.8999H40.0879V15.3249H43.3879V17.4999C44.4004 16.6374 45.4879 15.9624 46.5754 15.5124C47.6629 15.0249 48.7879 14.7999 49.9504 14.7999C52.0504 14.7999 53.6629 15.4374 54.7879 16.7124C55.9129 17.9874 56.4379 19.8249 56.4379 22.2249V34.9374Z" fill="#212B5E"/>
<path d="M77.0246 25.4499H62.5871C62.5871 26.6499 62.7746 27.6999 63.1496 28.5999C63.5246 29.4999 64.0121 30.2124 64.6496 30.8124C65.2496 31.3749 65.9621 31.7874 66.8246 32.0874C67.6496 32.3499 68.5871 32.4999 69.5996 32.4999C70.9496 32.4999 72.2621 32.2374 73.6121 31.7124C74.9621 31.1874 75.9371 30.6624 76.4996 30.1374H76.6871V33.7374C75.5621 34.1874 74.4371 34.5999 73.2746 34.8999C72.1121 35.1999 70.9121 35.3874 69.6371 35.3874C66.3746 35.3874 63.8621 34.5249 62.0246 32.7624C60.1871 30.9999 59.2871 28.4874 59.2871 25.2624C59.2871 22.0749 60.1496 19.5249 61.9121 17.6124C63.6746 15.7374 65.9621 14.7999 68.8121 14.7999C71.4371 14.7999 73.4996 15.5874 74.9246 17.1249C76.3496 18.6624 77.0621 20.8749 77.0621 23.6874V25.4499H77.0246ZM73.7996 22.9374C73.7996 21.2124 73.3496 19.8624 72.4871 18.9249C71.6246 17.9874 70.3121 17.4999 68.5496 17.4999C66.7871 17.4999 65.3621 18.0249 64.3121 19.0749C63.2621 20.1249 62.6621 21.3999 62.5496 22.9374H73.7996Z" fill="#212B5E"/>
<path d="M83.2121 34.9375H79.9121V7.63745H83.2121V34.9375Z" fill="#212B5E"/>
</g>
<defs>
<clipPath id="clip0_99_62">
<rect width="154.087" height="35.175" fill="white" transform="translate(2.25 2.91248)"/>
</clipPath>
</defs>
</svg>
